<?xml version="1.0" encoding="UTF-8"?><svg id="a" xmlns="http://www.w3.org/2000/svg" viewBox="0 0 466.664 420.004"><path d="M350.002,0C285.58,0,233.332,52.242,233.332,116.67v70H23.332c-12.832,0-23.332,10.5-23.332,23.332v186.67c0,12.832,10.5,23.332,23.332,23.332H303.332c12.832,0,23.332-10.5,23.332-23.332V210.002c0-12.832-10.5-23.332-23.332-23.332h-23.332V116.67c0-38.664,31.336-70,70-70s70,31.336,70,70v46.668c0,12.902,10.453,23.332,23.332,23.332s23.332-10.43,23.332-23.332v-46.668C466.664,52.244,414.422,0,350.004,0h-.002Z"/></svg>